<svg id="svg" xmlns="http://www.w3.org/2000/svg" xmlns:xlink="http://www.w3.org/1999/xlink" width="400" height="299.5169082125604" viewBox="0, 0, 400,299.5169082125604" version="1.1">
    <g id="svgg">
        <path id="path0" d="M146.613 104.102 C 145.154 106.093,132.276 120.815,117.994 136.818 L 92.026 165.915 86.349 161.138 C 79.128 155.062,81.503 153.519,54.810 181.643 C 42.201 194.928,33.188 204.827,34.783 203.641 C 36.377 202.455,46.812 194.591,57.971 186.167 C 69.130 177.742,79.311 170.206,80.594 169.420 C 81.902 168.618,89.753 171.422,98.468 175.804 L 114.010 183.618 114.039 197.606 C 114.090 221.379,116.342 217.740,134.301 164.865 L 151.691 113.668 157.488 120.957 C 160.676 124.965,165.670 130.911,168.584 134.171 L 173.883 140.097 177.431 135.559 L 180.979 131.021 186.383 137.491 C 189.355 141.050,199.797 152.657,209.587 163.285 C 219.378 173.913,232.530 188.365,238.815 195.401 C 253.409 211.741,253.558 210.571,240.530 181.877 C 228.516 155.415,228.512 154.839,240.255 143.314 L 248.619 135.105 275.617 158.857 C 312.875 191.635,310.293 190.029,304.262 176.670 C 301.418 170.371,298.615 163.560,298.033 161.534 C 296.776 157.154,295.601 156.535,322.158 174.261 C 343.213 188.316,348.291 190.720,338.771 182.126 C 335.533 179.203,324.530 169.117,314.320 159.713 L 295.757 142.615 288.916 146.843 L 282.076 151.071 264.226 135.391 L 246.377 119.712 229.796 137.013 L 213.215 154.314 197.131 135.071 L 181.046 115.829 176.766 119.850 L 172.485 123.871 161.903 112.177 C 149.999 99.023,150.240 99.150,146.613 104.102 " stroke="none" fill="#000000" fill-rule="evenodd"></path>
        </g>
        </svg>